<?xml version="1.0" encoding="UTF-8"?>
<svg width="700pt" height="700pt" version="1.1" viewBox="0 0 700 700" xmlns="http://www.w3.org/2000/svg">
 <g>
  <path d="m105 336.7c2.3086-0.03125 4.5078-0.97656 6.125-2.625l98.875-98.176c3.4297-3.4297 3.4297-8.9922 0-12.422-3.4297-3.4336-8.9922-3.4336-12.426 0l-98.699 98.348c-2.4492 2.5-3.1758 6.2227-1.8438 9.457 1.332 3.2383 4.4688 5.3711 7.9688 5.418z"/>
  <path d="m272.12 357.88c-1.6445-1.6562-3.8789-2.5898-6.2109-2.5898-2.3359 0-4.5703 0.93359-6.2148 2.5898l-161 161c-3.4297 3.4297-3.4297 8.9922 0 12.426 3.4336 3.4297 8.9961 3.4297 12.426 0l161-161c1.6562-1.6445 2.5898-3.8789 2.5898-6.2148 0-2.332-0.93359-4.5664-2.5898-6.2109z"/>
  <path d="m329.52 399c-1.6406-1.6562-3.8789-2.5898-6.2109-2.5898s-4.5703 0.93359-6.2109 2.5898l-119.7 119.88c-3.4297 3.4297-3.4297 8.9922 0 12.426 3.4336 3.4297 8.9961 3.4297 12.426 0l119.88-119.88c1.6328-1.668 2.5352-3.918 2.5-6.25-0.03125-2.332-0.99609-4.5547-2.6758-6.1758z"/>
  <path d="m105 435.23c2.3086-0.035156 4.5078-0.97656 6.125-2.625l119.88-119.88c3.4297-3.4336 3.4297-8.9961 0-12.426-3.4297-3.4336-8.9922-3.4336-12.426 0l-119.7 119.7c-2.4492 2.5-3.1758 6.2188-1.8438 9.457s4.4688 5.3672 7.9688 5.418z"/>
  <path d="m394.1 420-98.176 98.176c-3.4336 3.4297-3.4336 8.9922 0 12.426 3.4297 3.4297 8.9922 3.4297 12.426 0l98.176-98.176h-0.003906c3.4336-3.4336 3.4336-8.9961 0-12.426-3.4297-3.4297-8.9922-3.4297-12.422 0z"/>
  <path d="m603.57 203.88v-4.0234c-1.8594-31.156-11.746-61.297-28.699-87.5l-2.4492-3.5c-24.137-35.641-59.984-61.703-101.32-73.676l-4.1992-1.2266h-0.003906c-30.469-7.9141-62.453-7.9141-92.922 0l-4.1992 1.2266h-0.003906c-41.34 11.973-77.188 38.035-101.32 73.676l-2.4492 3.5c-16.953 26.203-26.84 56.344-28.699 87.5v4.0234 6.125c-0.13672 40.926 13.555 80.699 38.848 112.88l2.625 3.3242c19.898 24.414 45.758 43.281 75.078 54.777l4.0234 1.3984c40.422 14.652 84.703 14.652 125.12 0l4.0234-1.3984c29.301-11.449 55.16-30.254 75.078-54.602l2.625-3.3242c25.395-32.199 39.148-72.043 39.023-113.05 0-2.1016 0-4.1992-0.17578-6.125zm-48.301-90.477-15.926 49-55.648 23.449-54.949-39.723v-64.574l41.301-30.102c34.355 10.898 64.258 32.633 85.223 61.949zm-185.32-61.949 41.301 30.102v64.574l-54.773 39.898-55.652-23.625-15.926-49c20.926-29.285 50.758-51.016 85.051-61.949zm-116.2 157.5 41.125-29.75 55.125 23.277 21.176 65.102-33.426 41.121h-51.449c-21.242-28.512-32.664-63.145-32.551-98.699zm113.75 158.55-15.574-48.301 33.074-40.949h70l33.773 41.125-16.273 48.125c-34.086 11.305-70.914 11.305-105 0zm218.75-157.5c0.11328 35.555-11.309 70.188-32.551 98.699h-51.449l-33.773-41.125 21.523-65.098 55.477-23.449 41.125 29.75z"/>
 </g>
</svg>
